<?xml version="1.0" standalone="no"?>
<!DOCTYPE svg PUBLIC "-//W3C//DTD SVG 20010904//EN"
 "http://www.w3.org/TR/2001/REC-SVG-20010904/DTD/svg10.dtd">
<svg version="1.0" xmlns="http://www.w3.org/2000/svg"
 width="30" height="30" viewBox="0 0 4096.000000 4096.000000"
 preserveAspectRatio="xMidYMid meet">

<g transform="translate(0.000000,4096.000000) scale(0.100000,-0.100000)"
fill="#000000" stroke="none">
<path d="M11285 34553 c-576 -47 -1009 -165 -1488 -404 -358 -179 -655 -392
-956 -684 -674 -655 -1077 -1517 -1151 -2464 -7 -93 -10 -3956 -10 -12409 0
-11072 2 -12285 16 -12381 8 -58 30 -152 49 -208 68 -203 157 -347 314 -504
189 -189 393 -299 661 -355 105 -22 350 -25 460 -5 163 29 354 106 485 194 33
23 2477 1921 5432 4219 2955 2298 5377 4178 5383 4178 6 0 2428 -1880 5383
-4178 2954 -2298 5399 -4196 5432 -4219 249 -169 585 -244 885 -198 286 43
518 160 721 364 157 157 246 300 314 504 19 56 41 152 50 212 14 100 15 1245
12 12465 -3 11633 -4 12362 -20 12480 -70 505 -185 881 -398 1300 -503 989
-1413 1715 -2488 1985 -150 38 -301 66 -491 92 -117 16 -684 17 -9340 18
-5068 1 -9233 0 -9255 -2z m18425 -2580 c262 -66 451 -171 631 -352 181 -180
286 -369 352 -631 l22 -85 2 -10944 c3 -8773 1 -10942 -9 -10934 -234 186
-9457 7353 -9508 7389 -332 229 -769 286 -1150 149 -99 -36 -238 -108 -310
-161 -33 -24 -2166 -1683 -4742 -3686 -2576 -2004 -4700 -3656 -4721 -3672
l-37 -28 3 10943 2 10944 22 85 c63 249 167 442 329 610 99 103 159 151 273
219 139 84 327 150 484 170 34 5 4159 8 9167 7 l9105 -1 85 -22z"/>
</g>
</svg>
