<svg xmlns="http://www.w3.org/2000/svg" version="1.1" xmlns:xlink="http://www.w3.org/1999/xlink" xmlns:svgjs="http://svgjs.dev/svgjs" width="1000" height="1000" viewBox="0 0 1000 1000"><rect width="1000" height="1000" fill="#282634"></rect><g transform="matrix(0.7,0,0,0.7,149.57575757575756,430.2157535084235)"><svg viewBox="0 0 396 79" data-background-color="#282634" preserveAspectRatio="xMidYMid meet" height="199" width="1000" xmlns="http://www.w3.org/2000/svg" xmlns:xlink="http://www.w3.org/1999/xlink"><g id="tight-bounds" transform="matrix(1,0,0,1,0.2400000000000091,0.07613404762776099)"><svg viewBox="0 0 395.52 78.84773190474446" height="78.84773190474446" width="395.52"><g><svg viewBox="0 0 395.52 78.84773190474446" height="78.84773190474446" width="395.52"><g><svg viewBox="0 0 482.12356503725744 96.11233212231316" height="78.84773190474446" width="395.52"><g><rect width="3.7731705146686663" height="69.89355555927982" x="72.95298479832536" y="13.109388281516672" fill="#ff4057" opacity="1" stroke-width="0" stroke="transparent" fill-opacity="1" class="rect-r$-0" data-fill-palette-color="primary" rx="1%" id="r$-0" data-palette-color="#ff4057"></rect></g><g transform="matrix(1,0,0,1,86.60356503725755,13.283252847584528)"><svg viewBox="0 0 395.5199999999999 69.5458264271441" height="69.5458264271441" width="395.5199999999999"><g id="textblocktransform"><svg viewBox="0 0 395.5199999999999 69.5458264271441" height="69.5458264271441" width="395.5199999999999" id="textblock"><g><svg viewBox="0 0 395.5199999999999 41.83995715050884" height="41.83995715050884" width="395.5199999999999"><g transform="matrix(1,0,0,1,0,0)"><svg width="395.5199999999999" viewBox="2.25 -39 378.63 39.5" height="41.83995715050884" data-palette-color="#ff4057"><g class="wordmark-text-0" data-fill-palette-color="primary" id="text-0"><path d="M32.9-28.85L32.9-28.85Q32.9-26.2 32.05-24.1 31.2-22 29.38-20.55 27.55-19.1 24.63-18.3 21.7-17.5 17.5-17.5L17.5-17.5 13-17.5 13-7.85Q13-6 13.23-4.83 13.45-3.65 14.18-3 14.9-2.35 16.28-2.13 17.65-1.9 19.9-1.9L19.9-1.9 19.9 0 2.25 0 2.25-1.9Q4-1.95 5.08-2.2 6.15-2.45 6.75-3.05 7.35-3.65 7.55-4.75 7.75-5.85 7.75-7.6L7.75-7.6 7.75-30.9Q7.75-32.65 7.58-33.73 7.4-34.8 6.88-35.43 6.35-36.05 5.35-36.27 4.35-36.5 2.75-36.6L2.75-36.6 2.75-38.5 18.45-38.5Q25.35-38.5 29.13-35.95 32.9-33.4 32.9-28.85ZM13-35.3L13-20 16.55-20Q21.55-20 23.98-21.93 26.4-23.85 26.4-28.25L26.4-28.25Q26.4-32.5 24.48-34.33 22.55-36.15 18.45-36.15L18.45-36.15 13.85-36.15Q13-36.15 13-35.3L13-35.3ZM58-39L58-39Q62.4-39 66.2-37.45 70-35.9 72.8-33.2 75.6-30.5 77.2-26.85 78.8-23.2 78.8-18.95L78.8-18.95Q78.8-14.9 77.17-11.35 75.55-7.8 72.75-5.18 69.95-2.55 66.15-1.03 62.35 0.5 58 0.5L58 0.5Q53.65 0.5 49.85-1.03 46.05-2.55 43.25-5.18 40.45-7.8 38.82-11.35 37.2-14.9 37.2-18.95L37.2-18.95Q37.2-23.2 38.8-26.85 40.4-30.5 43.2-33.2 46-35.9 49.8-37.45 53.6-39 58-39ZM58-2.25L58-2.25Q61.3-2.25 63.92-3.4 66.55-4.55 68.42-6.7 70.3-8.85 71.3-11.93 72.3-15 72.3-18.8L72.3-18.8Q72.3-22.8 71.3-26.03 70.3-29.25 68.45-31.53 66.6-33.8 63.95-35.02 61.3-36.25 58-36.25L58-36.25Q54.7-36.25 52.05-35.02 49.4-33.8 47.55-31.53 45.7-29.25 44.7-26.03 43.7-22.8 43.7-18.8L43.7-18.8Q43.7-15 44.7-11.93 45.7-8.85 47.55-6.7 49.4-4.55 52.05-3.4 54.7-2.25 58-2.25ZM114.55-28.85L114.55-28.85Q114.55-26.2 113.7-24.1 112.85-22 111.02-20.55 109.2-19.1 106.27-18.3 103.35-17.5 99.15-17.5L99.15-17.5 94.65-17.5 94.65-7.85Q94.65-6 94.87-4.83 95.1-3.65 95.82-3 96.55-2.35 97.92-2.13 99.3-1.9 101.55-1.9L101.55-1.9 101.55 0 83.9 0 83.9-1.9Q85.65-1.95 86.72-2.2 87.8-2.45 88.4-3.05 89-3.65 89.2-4.75 89.4-5.85 89.4-7.6L89.4-7.6 89.4-30.9Q89.4-32.65 89.22-33.73 89.05-34.8 88.52-35.43 88-36.05 87-36.27 86-36.5 84.4-36.6L84.4-36.6 84.4-38.5 100.1-38.5Q107-38.5 110.77-35.95 114.55-33.4 114.55-28.85ZM94.65-35.3L94.65-20 98.2-20Q103.2-20 105.62-21.93 108.05-23.85 108.05-28.25L108.05-28.25Q108.05-32.5 106.12-34.33 104.2-36.15 100.1-36.15L100.1-36.15 95.5-36.15Q94.65-36.15 94.65-35.3L94.65-35.3ZM149.54-35.4L150.44-38.5 151.84-38.5 152.29-27 150.44-27Q149.34-31.4 146.19-33.9 143.04-36.4 138.59-36.4L138.59-36.4Q135.54-36.4 133.14-35.2 130.74-34 129.09-31.75 127.44-29.5 126.57-26.25 125.69-23 125.69-18.9L125.69-18.9Q125.69-10.85 129.04-6.53 132.39-2.2 138.74-2.2L138.74-2.2Q148.39-2.2 151.14-12.45L151.14-12.45 153.19-12.45 153.19 0 151.44 0 150.29-3.95Q145.04 0.5 137.59 0.5L137.59 0.5Q133.34 0.5 129.92-0.85 126.49-2.2 124.07-4.67 121.64-7.15 120.32-10.7 118.99-14.25 118.99-18.6L118.99-18.6Q118.99-23.15 120.39-26.9 121.79-30.65 124.32-33.35 126.84-36.05 130.37-37.52 133.89-39 138.14-39L138.14-39Q141.14-39 143.79-38.15 146.44-37.3 149.54-35.4L149.54-35.4ZM179.74-39L179.74-39Q184.14-39 187.94-37.45 191.74-35.9 194.54-33.2 197.34-30.5 198.94-26.85 200.54-23.2 200.54-18.95L200.54-18.95Q200.54-14.9 198.92-11.35 197.29-7.8 194.49-5.18 191.69-2.55 187.89-1.03 184.09 0.5 179.74 0.5L179.74 0.5Q175.39 0.5 171.59-1.03 167.79-2.55 164.99-5.18 162.19-7.8 160.56-11.35 158.94-14.9 158.94-18.95L158.94-18.95Q158.94-23.2 160.54-26.85 162.14-30.5 164.94-33.2 167.74-35.9 171.54-37.45 175.34-39 179.74-39ZM179.74-2.25L179.74-2.25Q183.04-2.25 185.67-3.4 188.29-4.55 190.17-6.7 192.04-8.85 193.04-11.93 194.04-15 194.04-18.8L194.04-18.8Q194.04-22.8 193.04-26.03 192.04-29.25 190.19-31.53 188.34-33.8 185.69-35.02 183.04-36.25 179.74-36.25L179.74-36.25Q176.44-36.25 173.79-35.02 171.14-33.8 169.29-31.53 167.44-29.25 166.44-26.03 165.44-22.8 165.44-18.8L165.44-18.8Q165.44-15 166.44-11.93 167.44-8.85 169.29-6.7 171.14-4.55 173.79-3.4 176.44-2.25 179.74-2.25ZM236.29-28.85L236.29-28.85Q236.29-24.85 233.89-22.2 231.49-19.55 226.24-18.65L226.24-18.65 237.29-5.35Q238.64-3.7 240.26-2.98 241.89-2.25 244.14-1.9L244.14-1.9 244.14 0 234.49 0 222.24-15.7Q221.59-16.55 221.01-17.05 220.44-17.55 219.81-17.82 219.19-18.1 218.36-18.18 217.54-18.25 216.39-18.25L216.39-18.25 216.39-7.85Q216.39-6 216.61-4.83 216.84-3.65 217.56-3 218.29-2.35 219.66-2.13 221.04-1.9 223.29-1.9L223.29-1.9 223.29 0 205.64 0 205.64-1.9Q207.39-1.95 208.46-2.2 209.54-2.45 210.14-3.05 210.74-3.65 210.94-4.75 211.14-5.85 211.14-7.6L211.14-7.6 211.14-30.9Q211.14-32.65 210.96-33.73 210.79-34.8 210.26-35.43 209.74-36.05 208.74-36.27 207.74-36.5 206.14-36.6L206.14-36.6 206.14-38.5 221.84-38.5Q228.74-38.5 232.51-35.95 236.29-33.4 236.29-28.85ZM216.39-35.3L216.39-20.75 219.94-20.75Q224.94-20.75 227.36-22.58 229.79-24.4 229.79-28.6L229.79-28.6Q229.79-32.65 227.86-34.4 225.94-36.15 221.84-36.15L221.84-36.15 217.24-36.15Q216.39-36.15 216.39-35.3L216.39-35.3ZM280.49 0.5L277.49 0.5 253.74-30.8 253.54-30.8 253.54-9.45Q253.54-6.95 253.71-5.5 253.89-4.05 254.41-3.25 254.94-2.45 255.91-2.2 256.89-1.95 258.49-1.9L258.49-1.9 258.49 0 245.04 0 245.04-1.9Q246.79-1.95 247.86-2.23 248.94-2.5 249.54-3.25 250.14-4 250.34-5.38 250.54-6.75 250.54-9.1L250.54-9.1 250.54-29.4Q250.54-31.5 250.36-32.88 250.19-34.25 249.66-35.05 249.14-35.85 248.14-36.18 247.14-36.5 245.54-36.6L245.54-36.6 245.54-38.5 255.44-38.5 277.29-9.35 277.49-9.35 277.49-29.05Q277.49-31.5 277.31-32.98 277.14-34.45 276.61-35.25 276.09-36.05 275.11-36.3 274.14-36.55 272.54-36.6L272.54-36.6 272.54-38.5 285.99-38.5 285.99-36.6Q284.24-36.55 283.16-36.27 282.09-36 281.49-35.25 280.89-34.5 280.69-33.1 280.49-31.7 280.49-29.4L280.49-29.4 280.49 0.5ZM291.23-2.75L291.23-2.75Q291.23-4.15 292.18-5.1 293.13-6.05 294.48-6.05L294.48-6.05Q295.88-6.05 296.83-5.1 297.78-4.15 297.78-2.75L297.78-2.75Q297.78-1.4 296.83-0.45 295.88 0.5 294.48 0.5L294.48 0.5Q293.13 0.5 292.18-0.45 291.23-1.4 291.23-2.75ZM339.93-38.5L340.43-28.95 338.38-28.95Q338.23-31.1 337.68-32.55 337.13-34 336.11-34.83 335.08-35.65 333.53-36 331.98-36.35 329.83-36.35L329.83-36.35Q327.98-36.35 326.86-36.27 325.73-36.2 325.13-36 324.53-35.8 324.36-35.52 324.18-35.25 324.18-34.8L324.18-34.8 324.18-8.05Q324.18-6.45 324.41-5.3 324.63-4.15 325.31-3.43 325.98-2.7 327.26-2.33 328.53-1.95 330.63-1.9L330.63-1.9 330.63 0 311.73 0 311.73-1.9Q313.83-1.95 315.13-2.33 316.43-2.7 317.11-3.43 317.78-4.15 318.01-5.3 318.23-6.45 318.23-8.05L318.23-8.05 318.23-34.8Q318.23-35.25 318.06-35.52 317.88-35.8 317.36-36 316.83-36.2 315.88-36.27 314.93-36.35 313.33-36.35L313.33-36.35Q311.38-36.35 309.71-36.2 308.03-36.05 306.81-35.33 305.58-34.6 304.83-33.1 304.08-31.6 304.03-28.95L304.03-28.95 302.18-28.95 302.18-38.5 339.93-38.5ZM353.58-30.15L362.48-7.65 371.28-29.35Q372.03-31.2 372.33-32.25 372.63-33.3 372.63-34.15L372.63-34.15Q372.63-35.5 371.8-36.05 370.98-36.6 368.73-36.6L368.73-36.6 368.73-38.5 380.88-38.5 380.88-36.6Q379.73-36.45 378.9-36.2 378.08-35.95 377.45-35.5 376.83-35.05 376.35-34.33 375.88-33.6 375.43-32.55L375.43-32.55 361.88 0.5 360.13 0.5 347.23-30.65Q346.58-32.15 345.95-33.25 345.33-34.35 344.58-35.05 343.83-35.75 342.88-36.1 341.93-36.45 340.63-36.55L340.63-36.55 340.63-38.5 356.93-38.5 356.93-36.55Q355.53-36.55 354.65-36.43 353.78-36.3 353.28-36.02 352.78-35.75 352.58-35.35 352.38-34.95 352.38-34.45L352.38-34.45Q352.38-33.75 352.63-32.83 352.88-31.9 353.58-30.15L353.58-30.15Z" fill="#ff4057" data-fill-palette-color="primary"></path></g></svg></g></svg></g><g transform="matrix(1,0,0,1,0,51.71736687477236)"><svg viewBox="0 0 232.20979199999994 17.82845955237174" height="17.82845955237174" width="232.20979199999994"><g transform="matrix(1,0,0,1,0,0)"><svg width="232.20979199999994" viewBox="2.7707421875 -37.5 628.2992578125001 48.243576427758" height="17.82845955237174" data-palette-color="#dcdcdc"><path d="M25.81-17.7L23.75-4.44Q22.73-3.05 21.39-2.08L21.39-2.08Q17.77 0.56 12.72 0.49L12.72 0.49Q8.15 0.44 5.54-2.61 2.93-5.66 2.78-10.86L2.78-10.86Q2.73-12.65 2.95-14.43L2.95-14.43 4.05-21.44Q5.18-28.47 8.52-32.23L8.52-32.23Q12.04-36.16 17.82-36.04L17.82-36.04Q22.41-35.89 24.84-33.01 27.27-30.13 27.17-25.1L27.17-25.1 22.83-25.12Q22.83-28.74 21.47-30.42 20.12-32.1 17.6-32.18L17.6-32.18Q13.96-32.35 11.65-29.76 9.33-27.17 8.42-21.51L8.42-21.51 7.3-14.06 7.15-12.06 7.15-10.38Q7.54-3.44 12.89-3.34L12.89-3.34Q14.82-3.3 16.33-3.92 17.85-4.54 19.34-5.69L19.34-5.69 20.83-13.89 14.5-13.89 15.19-17.7 25.81-17.7ZM44.58-26.59L44.11-22.39Q43.06-22.61 42.23-22.61L42.23-22.61Q39.04-22.61 36.96-18.92L36.96-18.92 33.69 0 29.47 0 34.06-26.42 38.13-26.44 37.55-23.73Q39.87-27.03 42.77-26.95L42.77-26.95Q43.36-26.93 44.58-26.59L44.58-26.59ZM61.27 0L57.03 0Q56.88-0.73 56.9-1.44L56.9-1.44 57-2.88Q54.19 0.51 50.95 0.51L50.95 0.51Q47.77 0.51 46-1.55 44.23-3.61 44.43-7.01L44.43-7.01Q44.7-11.11 47.81-13.57 50.92-16.04 55.98-16.04L55.98-16.04 58.91-16.04 59.32-18.85Q59.76-23.22 56.03-23.22L56.03-23.22Q54.1-23.22 52.81-22.08 51.53-20.95 51.19-19.12L51.19-19.12 47.02-19.09Q47.33-22.44 50.06-24.71 52.78-26.98 56.46-26.93L56.46-26.93Q60.03-26.88 61.95-24.74 63.86-22.61 63.5-18.77L63.5-18.77 61.35-5.76Q61.13-4.37 61.18-3.1L61.18-3.1 61.32-0.42 61.27 0ZM51.83-3.39L51.83-3.39Q55-3.39 57.29-6.49L57.29-6.49 58.39-12.82 56.46-12.84Q53.97-12.84 52.05-11.93 50.12-11.01 49.32-9.39 48.53-7.76 48.77-5.86L48.77-5.86Q49.09-3.39 51.83-3.39ZM77.51 0.49L77.51 0.49Q73.45 0.34 71.77-3.15L71.77-3.15 70.87 0 66.98 0 73.5-37.5 77.7-37.5 75.04-23.51Q77.65-27 81.34-26.9L81.34-26.9Q84.78-26.86 86.53-24.38 88.27-21.9 88.18-17.16L88.18-17.16Q88.08-14.55 87.59-11.33 87.1-8.11 86.15-5.81L86.15-5.81Q83.49 0.66 77.51 0.49ZM84.03-18.16L84.03-18.16Q83.9-20.73 82.9-21.9 81.9-23.07 80-23.12L80-23.12Q76.9-23.19 74.55-19.48L74.55-19.48 72.4-6.86Q73.55-3.42 76.65-3.3L76.65-3.3Q79.51-3.17 81.24-5.31 82.98-7.45 83.53-12.07 84.07-16.7 84.03-18.16ZM120.28 0L116.03 0Q115.88-0.73 115.91-1.44L115.91-1.44 116-2.88Q113.2 0.51 109.95 0.51L109.95 0.51Q106.77 0.51 105-1.55 103.23-3.61 103.43-7.01L103.43-7.01Q103.7-11.11 106.81-13.57 109.92-16.04 114.98-16.04L114.98-16.04 117.91-16.04 118.32-18.85Q118.76-23.22 115.03-23.22L115.03-23.22Q113.1-23.22 111.82-22.08 110.53-20.95 110.19-19.12L110.19-19.12 106.02-19.09Q106.34-22.44 109.06-24.71 111.78-26.98 115.47-26.93L115.47-26.93Q119.03-26.88 120.95-24.74 122.86-22.61 122.5-18.77L122.5-18.77 120.35-5.76Q120.13-4.37 120.18-3.1L120.18-3.1 120.32-0.42 120.28 0ZM110.83-3.39L110.83-3.39Q114-3.39 116.3-6.49L116.3-6.49 117.39-12.82 115.47-12.84Q112.98-12.84 111.05-11.93 109.12-11.01 108.32-9.39 107.53-7.76 107.78-5.86L107.78-5.86Q108.09-3.39 110.83-3.39ZM147.81 0.51L147.81 0.51Q144.05 0.42 142.15-2.54L142.15-2.54 139.78 10.16 135.58 10.16 141.93-26.42 145.71-26.44 145.22-23.49Q147.91-26.98 151.64-26.93L151.64-26.93Q155.16-26.88 156.89-24.3 158.63-21.73 158.48-17.16L158.48-17.16Q158.41-15.04 157.92-11.62 157.43-8.2 156.48-5.88L156.48-5.88Q153.79 0.68 147.81 0.51ZM154.28-18.19L154.28-18.19Q153.91-23.02 150.13-23.1L150.13-23.1Q147.25-23.17 145-20L145-20 142.63-6.2Q143.81-3.32 146.69-3.17L146.69-3.17Q149.54-3.05 151.37-5.2 153.21-7.35 153.79-11.89 154.38-16.43 154.28-18.19ZM162.92-11.94L163.21-14.38Q164.02-20.07 167.11-23.55 170.19-27.03 174.91-26.9L174.91-26.9Q177.84-26.83 179.79-25.21 181.74-23.58 182.58-20.73 183.43-17.87 183.04-14.43L183.04-14.43 182.74-11.94Q181.94-6.27 178.84-2.83 175.74 0.61 171.05 0.49L171.05 0.49Q168.12 0.42 166.17-1.2 164.21-2.81 163.37-5.66 162.53-8.52 162.92-11.94L162.92-11.94ZM167.07-11.47L167-10.16Q166.92-6.88 168.01-5.08 169.1-3.27 171.29-3.17L171.29-3.17Q174.13-3.05 175.98-5.19 177.84-7.32 178.47-11.6L178.47-11.6 178.84-14.45 178.96-16.21Q179.03-19.51 177.92-21.31 176.81-23.12 174.64-23.22L174.64-23.22Q171.76-23.34 169.84-20.84 167.92-18.33 167.36-13.89L167.36-13.89 167.07-11.47ZM196.56 0.51L196.56 0.51Q192.8 0.42 190.9-2.54L190.9-2.54 188.53 10.16 184.33 10.16 190.68-26.42 194.46-26.44 193.97-23.49Q196.66-26.98 200.39-26.93L200.39-26.93Q203.91-26.88 205.64-24.3 207.37-21.73 207.23-17.16L207.23-17.16Q207.16-15.04 206.67-11.62 206.18-8.2 205.23-5.88L205.23-5.88Q202.54 0.68 196.56 0.51ZM203.03-18.19L203.03-18.19Q202.66-23.02 198.88-23.1L198.88-23.1Q196-23.17 193.75-20L193.75-20 191.38-6.2Q192.56-3.32 195.44-3.17L195.44-3.17Q198.29-3.05 200.12-5.2 201.96-7.35 202.54-11.89 203.13-16.43 203.03-18.19ZM219.77-3.15L219.77-3.15Q221.85-3.08 223.27-4.44 224.68-5.81 225.24-8.3L225.24-8.3 229.22-8.33Q228.66-4.42 225.93-1.9 223.19 0.61 219.53 0.51L219.53 0.51Q216.04 0.44 213.96-1.59 211.89-3.61 211.47-7.28L211.47-7.28Q211.23-9.47 211.5-11.69L211.5-11.69 211.84-14.36Q212.65-20.53 215.61-23.78 218.58-27.03 223.34-26.9L223.34-26.9Q227-26.81 229.02-24.22 231.03-21.63 230.86-17.31L230.86-17.31 226.88-17.33Q227.03-23.07 223.1-23.22L223.1-23.22Q217.36-23.44 216.16-15.04L216.16-15.04Q215.4-9.84 215.55-7.96L215.55-7.96Q215.8-3.22 219.77-3.15ZM234.32-11.94L234.62-14.38Q235.42-20.07 238.51-23.55 241.6-27.03 246.31-26.9L246.31-26.9Q249.24-26.83 251.19-25.21 253.15-23.58 253.99-20.73 254.83-17.87 254.44-14.43L254.44-14.43 254.15-11.94Q253.34-6.27 250.24-2.83 247.14 0.61 242.45 0.49L242.45 0.49Q239.52 0.42 237.57-1.2 235.62-2.81 234.77-5.66 233.93-8.52 234.32-11.94L234.32-11.94ZM238.47-11.47L238.4-10.16Q238.33-6.88 239.41-5.08 240.5-3.27 242.7-3.17L242.7-3.17Q245.53-3.05 247.38-5.19 249.24-7.32 249.87-11.6L249.87-11.6 250.24-14.45 250.36-16.21Q250.44-19.51 249.33-21.31 248.21-23.12 246.04-23.22L246.04-23.22Q243.16-23.34 241.24-20.84 239.33-18.33 238.77-13.89L238.77-13.89 238.47-11.47ZM272.58-26.59L272.11-22.39Q271.06-22.61 270.23-22.61L270.23-22.61Q267.04-22.61 264.96-18.92L264.96-18.92 261.69 0 257.47 0 262.05-26.42 266.13-26.44 265.55-23.73Q267.87-27.03 270.77-26.95L270.77-26.95Q271.36-26.93 272.58-26.59L272.58-26.59ZM277.04-26.42L281-26.44 280.44-23.56Q283.32-26.95 286.98-26.9L286.98-26.9Q289.49-26.88 290.97-25.2 292.45-23.51 292.64-20.61L292.64-20.61Q292.74-18.92 292.57-17.31L292.57-17.31 289.69 0 285.49 0 288.4-17.38 288.49-19.31Q288.49-23.05 285.42-23.12L285.42-23.12Q282.9-23.19 280.73-20.26L280.73-20.26 280-19.21 276.68 0 272.45 0 277.04-26.42ZM295.38 7.1L295.38 7.1 292.84 5.27Q295.67 1.78 296.35-1.66L296.35-1.66 296.99-5.35 301.31-5.35 300.8-2.05Q299.92 3.52 295.38 7.1ZM327.13 0.49L327.13 0.49Q322.69 0.44 320.49-2.71 318.29-5.86 318.88-11.3L318.88-11.3 319.2-13.92Q319.96-20.07 322.95-23.55 325.94-27.03 330.55-26.9L330.55-26.9Q334.31-26.81 336.2-24.33 338.09-21.85 338-17.36L338-17.36 337.78-14.43 337.41-11.91 323.25-11.94Q322.93-9.74 322.96-8.5L322.96-8.5Q323.01-6.03 324.18-4.63 325.35-3.22 327.52-3.2L327.52-3.2Q329.09-3.15 330.61-3.82 332.14-4.49 333.82-6.18L333.82-6.18 335.8-3.42Q334.24-1.37 331.94-0.42 329.65 0.54 327.13 0.49ZM330.28-23.22L330.28-23.22Q325.96-23.41 324.23-17.99L324.23-17.99 323.57-15.63 333.7-15.6 333.82-16.24Q333.97-17.36 333.97-18.58L333.97-18.58Q333.87-23.02 330.28-23.22ZM344.81-26.42L348.76-26.44 348.2-23.56Q351.08-26.95 354.74-26.9L354.74-26.9Q357.26-26.88 358.73-25.2 360.21-23.51 360.41-20.61L360.41-20.61Q360.5-18.92 360.33-17.31L360.33-17.31 357.45 0 353.25 0 356.16-17.38 356.26-19.31Q356.26-23.05 353.18-23.12L353.18-23.12Q350.67-23.19 348.49-20.26L348.49-20.26 347.76-19.21 344.44 0 340.22 0 344.81-26.42ZM368.61-26.42L372.83-26.42 367.83 3.13Q367.29 7.08 365.59 8.95 363.9 10.82 361.14 10.74L361.14 10.74Q360.09 10.69 358.62 10.25L358.62 10.25 358.99 6.64Q360.14 6.91 360.67 6.91L360.67 6.91Q362.85 6.91 363.48 3.74L363.48 3.74 368.61-26.42ZM371.88-36.06L371.88-36.06Q372.9-36.11 373.59-35.38 374.27-34.64 374.22-33.45L374.22-33.45Q374.17-32.4 373.54-31.63 372.9-30.86 371.78-30.83L371.78-30.83Q370.68-30.79 370.05-31.56 369.41-32.32 369.46-33.37 369.51-34.42 370.13-35.22 370.76-36.01 371.88-36.06ZM376.44-11.94L376.73-14.38Q377.54-20.07 380.63-23.55 383.72-27.03 388.43-26.9L388.43-26.9Q391.36-26.83 393.31-25.21 395.27-23.58 396.11-20.73 396.95-17.87 396.56-14.43L396.56-14.43 396.27-11.94Q395.46-6.27 392.36-2.83 389.26 0.61 384.57 0.49L384.57 0.49Q381.64 0.42 379.69-1.2 377.74-2.81 376.89-5.66 376.05-8.52 376.44-11.94L376.44-11.94ZM380.59-11.47L380.52-10.16Q380.45-6.88 381.53-5.08 382.62-3.27 384.82-3.17L384.82-3.17Q387.65-3.05 389.5-5.19 391.36-7.32 391.99-11.6L391.99-11.6 392.36-14.45 392.48-16.21Q392.56-19.51 391.44-21.31 390.33-23.12 388.16-23.22L388.16-23.22Q385.28-23.34 383.36-20.84 381.45-18.33 380.89-13.89L380.89-13.89 380.59-11.47ZM406.05-26.42L407.42-7.25 415.43-26.42 420.04-26.42 406.37 4.1Q404.98 7.42 403.06 9.12 401.15 10.82 398.9 10.74L398.9 10.74Q398.14 10.72 396.51 10.3L396.51 10.3 396.92 6.64 397.83 6.79Q401.02 6.93 402.81 3.52L402.81 3.52 404.59-0.49 401.61-26.42 406.05-26.42ZM438.03-32.81L442.23-32.81 441.11-26.42 444.99-26.42 444.38-22.92 440.52-22.92 437.74-6.49 437.69-5.52Q437.59-3.44 439.18-3.44L439.18-3.44Q439.76-3.42 440.94-3.69L440.94-3.69 440.57 0Q439.2 0.49 437.81 0.44L437.81 0.44Q435.59 0.44 434.47-1.39 433.34-3.22 433.64-6.57L433.64-6.57 436.32-22.92 432.39-22.92 433.03-26.42 436.91-26.42 438.03-32.81ZM456.31-37.5L453.7-23.68Q456.66-26.98 460.12-26.88L460.12-26.88Q462.66-26.86 464.11-25.21 465.57-23.56 465.76-20.61L465.76-20.61Q465.86-18.92 465.69-17.31L465.69-17.31 462.81 0 458.61 0 461.51-17.38 461.61-19.31Q461.61-23.05 458.54-23.12L458.54-23.12Q456.02-23.19 453.85-20.26L453.85-20.26 453.12-19.21 449.8 0 445.57 0 452.09-37.5 456.31-37.5ZM479.09 0.49L479.09 0.49Q474.65 0.44 472.45-2.71 470.25-5.86 470.84-11.3L470.84-11.3 471.16-13.92Q471.91-20.07 474.9-23.55 477.89-27.03 482.51-26.9L482.51-26.9Q486.27-26.81 488.16-24.33 490.05-21.85 489.95-17.36L489.95-17.36 489.73-14.43 489.37-11.91 475.21-11.94Q474.89-9.74 474.92-8.5L474.92-8.5Q474.96-6.03 476.14-4.63 477.31-3.22 479.48-3.2L479.48-3.2Q481.04-3.15 482.57-3.82 484.1-4.49 485.78-6.18L485.78-6.18 487.76-3.42Q486.19-1.37 483.9-0.42 481.61 0.54 479.09 0.49ZM482.24-23.22L482.24-23.22Q477.92-23.41 476.19-17.99L476.19-17.99 475.53-15.63 485.66-15.6 485.78-16.24Q485.93-17.36 485.93-18.58L485.93-18.58Q485.83-23.02 482.24-23.22ZM508.14-26.42L512.07-26.44 511.56-23.97Q514.36-27 518.05-26.9L518.05-26.9Q519.98-26.86 521.43-25.9 522.88-24.95 523.49-23.1L523.49-23.1Q526.64-26.98 530.7-26.93L530.7-26.93Q533.36-26.86 534.9-25.24 536.43-23.63 536.68-20.75L536.68-20.75Q536.82-19.07 536.65-17.36L536.65-17.36 533.75 0 529.57 0 532.45-17.41 532.53-19.46Q532.48-21.19 531.61-22.16 530.75-23.12 529.13-23.12L529.13-23.12Q527.21-23.17 525.67-21.56 524.13-19.95 523.79-17.72L523.79-17.72 523.79-17.6 520.78 0 516.54 0 519.44-17.38Q519.54-18.36 519.49-19.38L519.49-19.38Q519.32-22.97 516.17-23.1L516.17-23.1Q513.17-23.14 511.17-19.82L511.17-19.82 507.75 0 503.55 0 508.14-26.42ZM541.7-11.94L542-14.38Q542.8-20.07 545.89-23.55 548.98-27.03 553.69-26.9L553.69-26.9Q556.62-26.83 558.58-25.21 560.53-23.58 561.37-20.73 562.21-17.87 561.82-14.43L561.82-14.43 561.53-11.94Q560.72-6.27 557.62-2.83 554.52 0.61 549.83 0.49L549.83 0.49Q546.91 0.42 544.95-1.2 543-2.81 542.16-5.66 541.31-8.52 541.7-11.94L541.7-11.94ZM545.86-11.47L545.78-10.16Q545.71-6.88 546.8-5.08 547.88-3.27 550.08-3.17L550.08-3.17Q552.91-3.05 554.77-5.19 556.62-7.32 557.26-11.6L557.26-11.6 557.62-14.45 557.75-16.21Q557.82-19.51 556.71-21.31 555.6-23.12 553.42-23.22L553.42-23.22Q550.54-23.34 548.63-20.84 546.71-18.33 546.15-13.89L546.15-13.89 545.86-11.47ZM571.07-26.42L573-6.62 580.94-26.42 585.38-26.42 573.64 0 570.49 0 566.92-26.42 571.07-26.42ZM594.63-26.42L590.04 0 585.82 0 590.41-26.42 594.63-26.42ZM591.38-33.4L591.38-33.4Q591.43-34.45 592.07-35.23 592.7-36.01 593.8-36.06L593.8-36.06Q594.85-36.11 595.53-35.35 596.22-34.59 596.17-33.47L596.17-33.47Q596.12-32.4 595.47-31.63 594.82-30.86 593.73-30.83L593.73-30.83Q592.65-30.79 591.99-31.54 591.33-32.3 591.38-33.4ZM606.69 0.49L606.69 0.49Q602.24 0.44 600.05-2.71 597.85-5.86 598.44-11.3L598.44-11.3 598.75-13.92Q599.51-20.07 602.5-23.55 605.49-27.03 610.11-26.9L610.11-26.9Q613.87-26.81 615.76-24.33 617.65-21.85 617.55-17.36L617.55-17.36 617.33-14.43 616.97-11.91 602.81-11.94Q602.49-9.74 602.51-8.5L602.51-8.5Q602.56-6.03 603.73-4.63 604.91-3.22 607.08-3.2L607.08-3.2Q608.64-3.15 610.17-3.82 611.69-4.49 613.38-6.18L613.38-6.18 615.35-3.42Q613.79-1.37 611.5-0.42 609.2 0.54 606.69 0.49ZM609.84-23.22L609.84-23.22Q605.52-23.41 603.78-17.99L603.78-17.99 603.12-15.63 613.26-15.6 613.38-16.24Q613.52-17.36 613.52-18.58L613.52-18.58Q613.43-23.02 609.84-23.22ZM631.07-35.55L626.31-10.03 622.53-10.03 626.66-35.55 631.07-35.55ZM620.77-2.22L620.77-2.22Q620.82-3.3 621.47-4.08 622.11-4.86 623.24-4.88L623.24-4.88Q624.26-4.93 624.95-4.17 625.63-3.42 625.58-2.29L625.58-2.29Q625.53-1.25 624.89-0.5 624.24 0.24 623.14 0.29L623.14 0.29Q622.11 0.34 621.42-0.38 620.72-1.1 620.77-2.22Z" opacity="1" transform="matrix(1,0,0,1,0,0)" fill="#dcdcdc" class="slogan-text-1" data-fill-palette-color="secondary" id="text-1"></path></svg></g></svg></g></svg></g></svg></g><g><svg viewBox="0 0 63.07557507406183 96.11233212231316" height="96.11233212231316" width="63.07557507406183"><g><svg xmlns="http://www.w3.org/2000/svg" xmlns:xlink="http://www.w3.org/1999/xlink" version="1.1" x="0" y="0" viewBox="20.914 5.620630533630795 58.632000000000005 89.3413694663692" enable-background="new 0 0 100 100" xml:space="preserve" height="96.11233212231316" width="63.07557507406183" class="icon-icon-0" data-fill-palette-color="accent" id="icon-0"></svg></g></svg></g></svg></g></svg></g><defs></defs><mask id="6c293993-6615-40a4-b634-520047a13b5e"><g id="SvgjsG1339"><svg viewBox="0 0 395.52 78.84773190474446" height="78.84773190474446" width="395.52"><g><svg viewBox="0 0 395.52 78.84773190474446" height="78.84773190474446" width="395.52"><g><svg viewBox="0 0 482.12356503725744 96.11233212231316" height="78.84773190474446" width="395.52"><g></g><g transform="matrix(1,0,0,1,86.60356503725755,13.283252847584528)"><svg viewBox="0 0 395.5199999999999 69.5458264271441" height="69.5458264271441" width="395.5199999999999"><g id="SvgjsG1337"><svg viewBox="0 0 395.5199999999999 69.5458264271441" height="69.5458264271441" width="395.5199999999999" id="SvgjsSvg1336"><g><svg viewBox="0 0 395.5199999999999 41.83995715050884" height="41.83995715050884" width="395.5199999999999"><g transform="matrix(1,0,0,1,0,0)"><svg width="395.5199999999999" viewBox="2.25 -39 378.63 39.5" height="41.83995715050884" data-palette-color="#ff4057"><g class="wordmark-text-0" data-fill-palette-color="primary" id="SvgjsG1335"></g></svg></g></svg></g><g transform="matrix(1,0,0,1,0,51.71736687477236)"><svg viewBox="0 0 232.20979199999994 17.82845955237174" height="17.82845955237174" width="232.20979199999994"><g transform="matrix(1,0,0,1,0,0)"><svg width="232.20979199999994" viewBox="2.7707421875 -37.5 628.2992578125001 48.243576427758" height="17.82845955237174" data-palette-color="#dcdcdc"></svg></g></svg></g></svg></g></svg></g><g><svg viewBox="0 0 63.07557507406183 96.11233212231316" height="96.11233212231316" width="63.07557507406183"><g><svg xmlns="http://www.w3.org/2000/svg" xmlns:xlink="http://www.w3.org/1999/xlink" version="1.1" x="0" y="0" viewBox="20.914 5.620630533630795 58.632000000000005 89.3413694663692" enable-background="new 0 0 100 100" xml:space="preserve" height="96.11233212231316" width="63.07557507406183" class="icon-icon-0" data-fill-palette-color="accent" id="SvgjsSvg1333"><g fill="white"><g fill="white"><path d="M50.256 55.944c-12.217 0-22.122 5.285-22.122 11.806 0 6.521 9.905 11.808 22.122 11.808 12.216 0 22.12-5.286 22.12-11.808C72.376 61.229 62.472 55.944 50.256 55.944zM50.256 77.655c-10.471 0-19.316-4.535-19.316-9.905 0-5.368 8.845-9.904 19.316-9.904 10.47 0 19.315 4.536 19.315 9.904C69.571 73.12 60.726 77.655 50.256 77.655z" fill="white"></path><g fill="white"><path d="M72.376 67.75c0 0.196-0.01 0.39-0.026 0.582 1.826-7.921 4.175-18.115 7.196-31.216-4.121-0.348-5.747 1.418-5.747 1.418L69.368 61.81C71.278 63.556 72.376 65.585 72.376 67.75z" fill="white"></path><path d="M66.74 75.621l-3.682 19.341h3.151c0 0 0.9-3.903 5.741-24.902C71.167 72.172 69.327 74.078 66.74 75.621z" fill="white"></path></g><g fill="white"><path d="M28.083 67.75c0 0.196 0.01 0.39 0.027 0.582-1.826-7.921-4.176-18.115-7.196-31.216 4.121-0.348 5.746 1.418 5.746 1.418L31.09 61.81C29.181 63.556 28.083 65.585 28.083 67.75z" fill="white"></path><path d="M33.719 75.621L37.4 94.962h-3.151c0 0-0.9-3.903-5.741-24.902C29.292 72.172 31.131 74.078 33.719 75.621z" fill="white"></path></g><g fill="white"><path d="M45.95 56.17l-0.973-18.367c0 0-1.625-1.766-5.747-1.419-4.121 0.348-4.629 1.257-4.629 1.257l2.563 20.594C39.727 57.229 42.711 56.511 45.95 56.17z" fill="white"></path><path d="M39.638 78.11l2.098 16.852h6.268l-0.822-15.521C44.48 79.241 41.936 78.782 39.638 78.11z" fill="white"></path></g><g fill="white"><path d="M63.297 58.216l2.561-20.575c0 0-0.509-0.909-4.629-1.257-4.121-0.347-5.746 1.419-5.746 1.419L54.51 56.165C57.747 56.502 60.731 57.216 63.297 58.216z" fill="white"></path><path d="M53.277 79.445l-0.822 15.517h6.269l2.095-16.835C58.521 78.794 55.975 79.249 53.277 79.445z" fill="white"></path></g></g><g fill="white"><path fill-rule="evenodd" clip-rule="evenodd" d="M30.558 29.523c2.496 1.795 2.011 7.958-3.172 6.563-0.687-0.115-0.979-0.606-1.12-1.242-2.709 4.118-6.741-2.537-2.983-4.434C18.391 22.55 33.842 21.675 30.558 29.523z" fill="white"></path><path fill-rule="evenodd" clip-rule="evenodd" d="M50.256 9.617c-0.658-2.3 2.819-5.98 5.389-2.686 0.375 0.393 0.307 0.84 0.07 1.308 3.837-1.349 2.969 4.745-0.39 4.201C54.38 19.698 44.134 13.064 50.256 9.617z" fill="white"></path><path fill-rule="evenodd" clip-rule="evenodd" d="M45.457 22.64c-2.906 1.145-8.195-2.367-4.262-5.923 0.458-0.507 1.051-0.497 1.695-0.292-2.301-4.308 5.764-4.26 5.529-0.215C58.014 16.161 50.812 29.304 45.457 22.64z" fill="white"></path><path fill-rule="evenodd" clip-rule="evenodd" d="M41.75 25.675c2.059-1.815 6.348 2.417 6.244 4.645-0.106 2.228-1.772 2.336-2.386 2.113 0.808 2.452-2.267 3.629-3.097 1.57-1.119 1.588-3.909 1.155-3.711-1.604-2.671 0.022-4.834-1.852-5.177-4.28C33.002 23.728 39.655 22.28 41.75 25.675z" fill="white"></path><path fill-rule="evenodd" clip-rule="evenodd" d="M68.876 27.315c-0.18-2.646 6.02-3.159 7.782-1.691 1.761 1.467 0.789 2.761 0.218 3.073 2.524 0.936 1.536 3.93-0.681 3.256 0.591 1.814-1.537 3.595-3.676 1.727-1.68 1.979-4.594 2.399-6.805 1.136C61.719 32.531 64.76 26.737 68.876 27.315z" fill="white"></path><path fill-rule="evenodd" clip-rule="evenodd" d="M29.511 14.878c-2.098-1.747 1.896-6.285 4.233-6.435 2.337-0.149 2.615 1.417 2.443 2.023 2.48-1.04 4.013 1.74 1.945 2.757 1.769 0.883 1.593 3.573-1.309 3.694 0.288 2.527-1.455 4.787-3.958 5.383C28.342 23.38 26.173 17.241 29.511 14.878z" fill="white"></path><path fill-rule="evenodd" clip-rule="evenodd" d="M55.057 26.319c2.26-1.827 5.696-2.943 7.199-1.246 1.335 1.508 1.401 6.721-2.046 6.621 0.159 1.448-0.501 3.558-2.804 3.561-0.91-0.565-1.343-1.597-1.569-2.62-0.639 0.193-0.593 0.942-1.345 1.34-2.768 1.466-5.467-2.54-4.044-4.957-2.161-1.64-0.073-4.275 2.345-4.332C53.588 25.093 54.4 25.437 55.057 26.319z" fill="white"></path><path fill-rule="evenodd" clip-rule="evenodd" d="M63.347 21.665c-2.83 0.84-6.452 0.588-7.137-1.534-0.607-1.884 1.478-6.706 4.607-5.331 0.451-1.392 1.928-3.088 4.047-2.232 0.605 0.859 0.578 1.969 0.366 2.994 0.667 0.06 0.935-0.646 1.789-0.732 3.15-0.32 3.985 4.372 1.681 6.064 1.313 2.313-1.693 3.963-3.94 3.114C64.196 23.339 63.589 22.72 63.347 21.665z" fill="white"></path></g></g></svg></g></svg></g></svg></g></svg></g><defs><mask></mask></defs></svg></g></mask><linearGradient x1="0" x2="1" y1="0.5" y2="0.5" id="f17f549e-54cf-4724-a423-1ccf02ece361"><stop stop-color="#fff72e" offset="0"></stop><stop stop-color="#deae29" offset="1"></stop></linearGradient><rect width="395.52000000000004" height="78.84773190474446" fill="url(#f17f549e-54cf-4724-a423-1ccf02ece361)" mask="url(#6c293993-6615-40a4-b634-520047a13b5e)" data-fill-palette-color="accent"></rect></svg><rect width="395.52" height="78.84773190474446" fill="none" stroke="none" visibility="hidden"></rect></g></svg></g></svg>